<svg xmlns="http://www.w3.org/2000/svg" width="1200" height="640" viewBox="0 0 1200 640" role="img" aria-labelledby="title desc">
  <title id="title">Game DDL topic family map</title>
  <desc id="desc">A clean overview of the game-ddl topic family: esports events, game versions, and Steam upcoming releases.</desc>
  <defs>
    <filter id="softShadow" x="-20%" y="-20%" width="140%" height="140%">
      <feDropShadow dx="0" dy="18" stdDeviation="24" flood-color="#0F172A" flood-opacity="0.12"/>
    </filter>
  </defs>

  <rect width="1200" height="640" rx="32" fill="#F6F8FB"/>
  <rect x="42" y="42" width="1116" height="556" rx="30" fill="#FFFFFF" stroke="#D9E2EF" filter="url(#softShadow)"/>

  <rect x="70" y="70" width="1060" height="58" rx="16" fill="#0F172A"/>
  <rect x="96" y="91" width="16" height="16" rx="8" fill="#E11D48"/>
  <text x="126" y="108" font-family="Inter, Microsoft YaHei, sans-serif" font-size="18" font-weight="900" fill="#FFFFFF">JUST-DDL NETWORK</text>
  <text x="958" y="108" font-family="Inter, Microsoft YaHei, sans-serif" font-size="16" font-weight="800" text-anchor="end" fill="#B7F7D4">Pages + Hub sync</text>
  <text x="1110" y="108" font-family="Inter, Microsoft YaHei, sans-serif" font-size="16" font-weight="800" text-anchor="end" fill="#C7D2FE">public-data</text>

  <text x="76" y="180" font-family="Inter, Microsoft YaHei, sans-serif" font-size="42" font-weight="900" fill="#0F172A">Game DDL Topic Family</text>
  <text x="76" y="218" font-family="Inter, Microsoft YaHei, sans-serif" font-size="20" font-weight="700" fill="#334155">电竞赛事、游戏版本与 Steam 新游倒计时</text>
  <text x="76" y="248" font-family="Inter, Microsoft YaHei, sans-serif" font-size="16" fill="#64748B">Official-source countdowns for esports, Riot patches, and Steam releases.</text>

  <g>
    <rect x="76" y="292" width="650" height="82" rx="18" fill="#FFF1F2" stroke="#FFE4E6"/>
    <rect x="100" y="316" width="34" height="34" rx="10" fill="#E11D48"/>
    <path d="M111 328h12v5h5v6h-5v3h-12v-3h-5v-6h5z" fill="#FFFFFF"/>
    <text x="154" y="323" font-family="Inter, Microsoft YaHei, sans-serif" font-size="18" font-weight="900" fill="#0F172A">Esports Events</text>
    <text x="154" y="350" font-family="Inter, Microsoft YaHei, sans-serif" font-size="15" fill="#64748B">LoL, VALORANT, CS2, Dota 2, 王者荣耀, EWC</text>
    <text x="688" y="329" font-family="Inter, Microsoft YaHei, sans-serif" font-size="30" font-weight="900" text-anchor="end" fill="#E11D48">16</text>
    <text x="688" y="352" font-family="Inter, Microsoft YaHei, sans-serif" font-size="14" font-weight="800" text-anchor="end" fill="#9F1239">items</text>
  </g>

  <g>
    <rect x="76" y="394" width="650" height="82" rx="18" fill="#EFF6FF" stroke="#DBEAFE"/>
    <rect x="100" y="418" width="34" height="34" rx="10" fill="#0EA5E9"/>
    <path d="M109 430h16v5h-16zM109 438h12v5h-12z" fill="#FFFFFF"/>
    <text x="154" y="425" font-family="Inter, Microsoft YaHei, sans-serif" font-size="18" font-weight="900" fill="#0F172A">Game Versions</text>
    <text x="154" y="452" font-family="Inter, Microsoft YaHei, sans-serif" font-size="15" fill="#64748B">League of Legends and TFT official patch schedule</text>
    <text x="688" y="431" font-family="Inter, Microsoft YaHei, sans-serif" font-size="30" font-weight="900" text-anchor="end" fill="#0284C7">30</text>
    <text x="688" y="454" font-family="Inter, Microsoft YaHei, sans-serif" font-size="14" font-weight="800" text-anchor="end" fill="#075985">items</text>
  </g>

  <g>
    <rect x="76" y="496" width="650" height="82" rx="18" fill="#F0FDF4" stroke="#DCFCE7"/>
    <rect x="100" y="520" width="34" height="34" rx="10" fill="#16A34A"/>
    <path d="M110 536a7 7 0 1 0 14 0 7 7 0 0 0-14 0zm17-9h8v8h-8z" fill="#FFFFFF"/>
    <text x="154" y="527" font-family="Inter, Microsoft YaHei, sans-serif" font-size="18" font-weight="900" fill="#0F172A">Steam Upcoming</text>
    <text x="154" y="554" font-family="Inter, Microsoft YaHei, sans-serif" font-size="15" fill="#64748B">Coming Soon and Popular Upcoming releases with precise dates</text>
    <text x="688" y="533" font-family="Inter, Microsoft YaHei, sans-serif" font-size="30" font-weight="900" text-anchor="end" fill="#16A34A">88</text>
    <text x="688" y="556" font-family="Inter, Microsoft YaHei, sans-serif" font-size="14" font-weight="800" text-anchor="end" fill="#166534">items</text>
  </g>

  <g>
    <rect x="770" y="166" width="326" height="112" rx="24" fill="#0F172A"/>
    <rect x="770" y="166" width="10" height="112" rx="5" fill="#16A34A"/>
    <text x="802" y="214" font-family="Inter, Microsoft YaHei, sans-serif" font-size="44" font-weight="900" fill="#FFFFFF">134</text>
    <text x="802" y="247" font-family="Inter, Microsoft YaHei, sans-serif" font-size="18" font-weight="900" fill="#FFFFFF">active DDL items</text>

    <rect x="770" y="302" width="150" height="112" rx="22" fill="#F8FAFC" stroke="#D9E2EF"/>
    <text x="802" y="350" font-family="Inter, Microsoft YaHei, sans-serif" font-size="38" font-weight="900" fill="#0F172A">13</text>
    <text x="802" y="382" font-family="Inter, Microsoft YaHei, sans-serif" font-size="15" font-weight="800" fill="#64748B">source families</text>

    <rect x="946" y="302" width="150" height="112" rx="22" fill="#F8FAFC" stroke="#D9E2EF"/>
    <text x="978" y="350" font-family="Inter, Microsoft YaHei, sans-serif" font-size="38" font-weight="900" fill="#0F172A">3</text>
    <text x="978" y="382" font-family="Inter, Microsoft YaHei, sans-serif" font-size="15" font-weight="800" fill="#64748B">public exports</text>
  </g>

  <g>
    <rect x="770" y="446" width="326" height="132" rx="24" fill="#F8FAFC" stroke="#D9E2EF"/>
    <text x="802" y="482" font-family="Inter, Microsoft YaHei, sans-serif" font-size="16" font-weight="900" fill="#0F172A">Official source pipeline</text>
    <text x="802" y="516" font-family="Inter, Microsoft YaHei, sans-serif" font-size="14" font-weight="800" fill="#E11D48">official pages</text>
    <path d="M910 511h42" stroke="#CBD5E1" stroke-width="3" stroke-linecap="round"/>
    <path d="M948 505l10 7-10 7" fill="none" stroke="#CBD5E1" stroke-width="3" stroke-linecap="round" stroke-linejoin="round"/>
    <text x="970" y="516" font-family="Inter, Microsoft YaHei, sans-serif" font-size="14" font-weight="800" fill="#0284C7">crawler</text>
    <text x="802" y="548" font-family="Inter, Microsoft YaHei, sans-serif" font-size="14" font-weight="800" fill="#16A34A">validator</text>
    <path d="M887 543h42" stroke="#CBD5E1" stroke-width="3" stroke-linecap="round"/>
    <path d="M925 537l10 7-10 7" fill="none" stroke="#CBD5E1" stroke-width="3" stroke-linecap="round" stroke-linejoin="round"/>
    <text x="948" y="548" font-family="Inter, Microsoft YaHei, sans-serif" font-size="14" font-weight="800" fill="#0F766E">Hub sync</text>
  </g>
</svg>
